<?xml version="1.0" encoding="UTF-8" standalone="no"?>
<svg width="60px" height="60px" viewBox="0 0 60 60" version="1.1" xmlns="http://www.w3.org/2000/svg" xmlns:xlink="http://www.w3.org/1999/xlink" xmlns:sketch="http://www.bohemiancoding.com/sketch/ns">
    <!-- Generator: Sketch 3.3.2 (12043) - http://www.bohemiancoding.com/sketch -->
    <title>Oval 5 + Fill 33</title>
    <desc>Created with Sketch.</desc>
    <defs></defs>
    <g id="Page-1" stroke="none" stroke-width="1" fill="none" fill-rule="evenodd" sketch:type="MSPage">
        <g id="150611-MOOC" sketch:type="MSArtboardGroup" transform="translate(-313.000000, -1325.000000)">
            <g id="Group" sketch:type="MSLayerGroup" transform="translate(0.000000, 1165.000000)">
                <g id="Oval-5-+-Fill-33" transform="translate(313.000000, 160.000000)" sketch:type="MSShapeGroup">
                    <circle id="Oval-5" fill="#FFFFFF" cx="30" cy="30" r="30"></circle>
                    <path d="M41.2500031,29.7499591 L36.0011502,29.7499591 L36.0000252,29.7499591 L36.0000252,29.3565858 C36.0000252,29.1597116 36.1616495,28.9999623 36.3588987,28.9999623 L40.8937546,28.9999623 C41.0910038,28.9999623 41.2500031,29.1597116 41.2500031,29.3565858 L41.2500031,29.7499591 L41.2500031,29.7499591 Z M41.2500031,37.2499277 L36.0011502,37.2499277 L36.0000252,37.2499277 L36.0000252,30.499956 L41.2500031,30.499956 L41.2500031,37.2499277 L41.2500031,37.2499277 Z M41.2500031,39.1432947 C41.2500031,39.3394189 41.0910038,39.4999182 40.8937546,39.4999182 L36.3588987,39.4999182 C36.1616495,39.4999182 36.0000252,39.3394189 36.0000252,39.1432947 L36.0000252,37.9999245 L41.2500031,37.9999245 L41.2500031,39.1432947 L41.2500031,39.1432947 Z M35.2500283,29.3565858 L35.2500283,32.7499465 L18.7500975,32.7499465 L18.7500975,22.9999874 L39.0000126,22.9999874 L39.0000126,28.2499654 L36.3588987,28.2499654 C35.7480262,28.2499654 35.2500283,28.7464633 35.2500283,29.3565858 L35.2500283,29.3565858 Z M35.2500283,35.7499339 L18.9829715,35.7499339 C18.9192218,35.7499339 18.875722,35.739059 18.8550971,35.7176841 C18.7467225,35.6085595 18.7500975,35.1889363 18.7500975,34.8821876 L18.7500975,33.4999434 L35.2500283,33.4999434 L35.2500283,35.7499339 L35.2500283,35.7499339 Z M26.1649414,39.4999182 L26.8035637,36.4999308 L30.1909245,36.4999308 L30.8295468,39.4999182 L26.1649414,39.4999182 L26.1649414,39.4999182 Z M18.7718474,20.7777467 C18.7725974,20.7769967 18.8179722,20.7499969 18.9829715,20.7499969 L38.1502661,20.7499969 C38.2923905,20.7499969 39.0000126,20.7807467 39.0000126,21.3848692 L39.0000126,22.2499906 L18.7500975,22.2499906 L18.7500975,21.2427448 C18.7493475,21.0664955 18.7485975,20.8246215 18.7718474,20.7777467 L18.7718474,20.7777467 Z M40.8937546,28.2499654 L39.7500094,28.2499654 L39.7500094,21.3848692 C39.7500094,20.5692476 39.0930122,20 38.1502661,20 L18.9829715,20 C18.7703474,20 18.4635987,20.0247499 18.2453496,20.244499 C17.9963507,20.4949979 17.9986007,20.8437465 18.0004757,21.2472448 L18.0012256,34.7400632 L18.0004757,34.8776876 C17.9978507,35.3888105 17.9948507,35.9160583 18.3237243,36.2464319 C18.4905986,36.4148062 18.7118477,36.4999308 18.9829715,36.4999308 L26.0370669,36.4999308 L25.3984446,39.4999182 L24.7511973,39.4999182 C24.5441982,39.4999182 24.3761989,39.6675425 24.3761989,39.8749166 C24.3761989,40.0822908 24.5441982,40.2499151 24.7511973,40.2499151 L31.2926699,40.2499151 C31.2967949,40.2491651 31.3027949,40.2491651 31.3072948,40.2499151 L32.2511659,40.2499151 C32.45854,40.2499151 32.6261643,40.0822908 32.6261643,39.8749166 C32.6261643,39.6675425 32.45854,39.4999182 32.2511659,39.4999182 L31.5960436,39.4999182 L30.9577963,36.4999308 L35.2500283,36.4999308 L35.2500283,39.1432947 C35.2500283,39.7534172 35.7480262,40.2499151 36.3588987,40.2499151 L40.8937546,40.2499151 C41.5046271,40.2499151 42,39.7534172 42,39.1432947 L42,29.3565858 C42,28.7464633 41.5046271,28.2499654 40.8937546,28.2499654 L40.8937546,28.2499654 Z" id="Fill-33" fill="#247BA0"></path>
                </g>
            </g>
        </g>
    </g>
</svg>