<?xml version="1.0" encoding="UTF-8" standalone="no"?>
<svg width="60px" height="60px" viewBox="0 0 60 60" version="1.1" xmlns="http://www.w3.org/2000/svg" xmlns:xlink="http://www.w3.org/1999/xlink" xmlns:sketch="http://www.bohemiancoding.com/sketch/ns">
    <!-- Generator: Sketch 3.3.2 (12043) - http://www.bohemiancoding.com/sketch -->
    <title>Oval 5 Copy 4 + Fill 11</title>
    <desc>Created with Sketch.</desc>
    <defs></defs>
    <g id="Page-1" stroke="none" stroke-width="1" fill="none" fill-rule="evenodd" sketch:type="MSPage">
        <g id="150611-MOOC" sketch:type="MSArtboardGroup" transform="translate(-740.000000, -1325.000000)">
            <g id="Group" sketch:type="MSLayerGroup" transform="translate(0.000000, 1165.000000)">
                <g id="Oval-5-Copy-4-+-Fill-11" transform="translate(740.000000, 160.000000)" sketch:type="MSShapeGroup">
                    <circle id="Oval-5-Copy-4" fill="#FFFFFF" cx="30" cy="30" r="30"></circle>
                    <path d="M34.4429851,27.6 C34.6636418,27.6 34.8441791,27.4208 34.8441791,27.2 C34.8441791,26.9792 34.6636418,26.8 34.4429851,26.8 L26.4191045,26.8 C26.1976454,26.8 26.0179104,26.9792 26.0179104,27.2 C26.0179104,27.4208 26.1976454,27.6 26.4191045,27.6 L34.4429851,27.6 L34.4429851,27.6 Z M23.2095522,25.2 L36.8501493,25.2 C37.070806,25.2 37.2513433,25.0208 37.2513433,24.8 C37.2513433,24.5792 37.070806,24.4 36.8501493,24.4 L23.2095522,24.4 C22.9880931,24.4 22.8083582,24.5792 22.8083582,24.8 C22.8083582,25.0208 22.9880931,25.2 23.2095522,25.2 L23.2095522,25.2 Z M20.8023881,18.8 L39.2573134,18.8 L39.2573134,41.2 L20.8023881,41.2 L20.8023881,18.8 Z M39.6585075,18 L20.401194,18 C20.1797349,18 20,18.1792 20,18.4 L20,41.6 C20,41.8204 20.1797349,42 20.401194,42 L39.6585075,42 C39.8791642,42 40.0597015,41.8204 40.0597015,41.6 L40.0597015,18.4 C40.0597015,18.1792 39.8791642,18 39.6585075,18 L39.6585075,18 Z M26.4191045,22.8 L34.4429851,22.8 C34.6636418,22.8 34.8441791,22.6208 34.8441791,22.4 C34.8441791,22.1792 34.6636418,22 34.4429851,22 L26.4191045,22 C26.1976454,22 26.0179104,22.1792 26.0179104,22.4 C26.0179104,22.6208 26.1976454,22.8 26.4191045,22.8 L26.4191045,22.8 Z M33.3549469,37.5212 C33.2113194,37.472 33.0516442,37.5108 32.9449266,37.6176 L31.440449,39.1176 L30.723114,36.2588 C31.7726376,36.1036 32.6664979,35.4724 33.1760143,34.5908 L35.3356418,38.178 L33.3549469,37.5212 L33.3549469,37.5212 Z M27.6138603,32.9 C27.6138603,31.4664 28.7837421,30.3 30.2216215,30.3 C31.6599021,30.3 32.8293827,31.4664 32.8293827,32.9 C32.8293827,34.3336 31.6599021,35.5 30.2216215,35.5 C28.7837421,35.5 27.6138603,34.3336 27.6138603,32.9 L27.6138603,32.9 Z M29.0003869,39.1204 L27.4959093,37.6204 C27.3883893,37.5116 27.2295164,37.4736 27.0850866,37.5236 L25.1047928,38.1804 L27.2660251,34.5888 C27.7751403,35.4712 28.6685994,36.1028 29.7177218,36.2584 L29.0003869,39.1204 L29.0003869,39.1204 Z M33.572394,33.6936 C33.5643701,33.6808 33.5519331,33.6732 33.5427057,33.6612 C33.599274,33.4164 33.6317707,33.162 33.6317707,32.9 C33.6317707,31.0256 32.1016167,29.5 30.2216215,29.5 C28.3416263,29.5 26.8114722,31.0256 26.8114722,32.9 C26.8114722,33.1616 26.843969,33.4152 26.9005373,33.6596 C26.8901063,33.6728 26.8764657,33.6812 26.8676394,33.6952 L23.8586842,38.6952 C23.7728287,38.8384 23.7848645,39.0212 23.8899773,39.1504 C23.9950901,39.2816 24.1692084,39.3336 24.329686,39.2796 L27.1035415,38.3592 L28.934591,40.1832 C29.0116203,40.2592 29.1135236,40.3 29.2186364,40.3 C29.2539415,40.3 29.290049,40.2952 29.3237493,40.2876 C29.4633648,40.2488 29.5716872,40.1384 29.6061899,39.9984 L30.2204179,37.548 L30.834646,39.9968 C30.869951,40.136 30.977471,40.246 31.1170866,40.286 C31.153194,40.2952 31.1897027,40.3 31.2246066,40.3 C31.3297194,40.3 31.4316227,40.2592 31.5054424,40.1816 L33.3356896,38.358 L36.1095451,39.278 C36.2684179,39.332 36.4449433,39.2796 36.5500561,39.1488 C36.655169,39.0184 36.6672048,38.8376 36.5813493,38.6936 L33.572394,33.6936 L33.572394,33.6936 Z" id="Fill-11" fill="#247BA0"></path>
                </g>
            </g>
        </g>
    </g>
</svg>