<?xml version="1.0" encoding="UTF-8" standalone="no"?>
<svg width="60px" height="60px" viewBox="0 0 60 60" version="1.1" xmlns="http://www.w3.org/2000/svg" xmlns:xlink="http://www.w3.org/1999/xlink" xmlns:sketch="http://www.bohemiancoding.com/sketch/ns">
    <!-- Generator: Sketch 3.3.2 (12043) - http://www.bohemiancoding.com/sketch -->
    <title>Oval 5 Copy 6 + Fill 3</title>
    <desc>Created with Sketch.</desc>
    <defs></defs>
    <g id="Page-1" stroke="none" stroke-width="1" fill="none" fill-rule="evenodd" sketch:type="MSPage">
        <g id="150611-MOOC" sketch:type="MSArtboardGroup" transform="translate(-741.000000, -1445.000000)">
            <g id="Group" sketch:type="MSLayerGroup" transform="translate(0.000000, 1165.000000)">
                <g id="Oval-5-Copy-6-+-Fill-3" transform="translate(741.000000, 280.000000)" sketch:type="MSShapeGroup">
                    <circle id="Oval-5-Copy-6" fill="#FFFFFF" cx="30" cy="30" r="30"></circle>
                    <path d="M40,28.8 C40.0076,28.6736 40.0136,28.542 40.0136,28.4268 C40.0136,23.782 36.2312,20 31.6,20 C27.8728,20 24.416,22.4716 23.36,26.0104 C20.4504,26.0348 18,28.5872 18,31.604 C18,34.6352 20.4728,37.2 23.4008,37.2 L27.7128,37.2 C27.9336,37.2 28.1128,37.02 28.1128,36.8 C28.1128,36.58 27.9336,36.4 27.7128,36.4 L23.4008,36.4 C20.9072,36.4 18.8,34.1924 18.8,31.5948 C18.8,29.0036 20.8968,26.8 23.4512,26.8 L23.468,26.8 C23.5224,26.8 23.5792,26.8276 23.636,26.83 C23.8304,26.838 23.9944,26.7216 24.0416,26.5384 C24.8976,23.1752 28.1232,20.8 31.6,20.8 C35.79,20.8 39.212,24.2228 39.212,28.4268 C39.212,28.6004 39.1976,28.8168 39.1856,28.9872 C39.174,29.1408 39.252,29.288 39.3856,29.3644 C40.4944,29.998 41.1976,31.0828 41.1976,32.4 C41.1976,34.4568 39.3488,36.4 37.3984,36.4 L32.51,36.4 C32.2908,36.4 32.11,36.58 32.11,36.8 C32.11,37.02 32.2908,37.2 32.51,37.2 L37.3984,37.2 C39.7824,37.2 41.9976,34.8908 42,32.4 C42,30.8876 41.2304,29.608 40,28.8 L40,28.8 Z M32.5416,38.1708 L30.8,39.6584 L30.8,30.7916 C30.8,30.5708 30.6204,30.3916 30.4,30.3916 C30.1796,30.3916 30,30.5708 30,30.7916 L30,39.678 L28.1164,38.1628 C27.9404,38.0284 27.6908,38.0648 27.5572,38.2412 C27.4236,38.4184 27.458,38.668 27.6336,38.8016 L30.1584,40.7176 C30.2296,40.7732 30.3156,40.8 30.4,40.8 C30.4892,40.8 30.576,40.77 30.6508,40.7112 L33.0416,38.7948 C33.2148,38.6568 33.2424,38.4052 33.1044,38.2328 C32.9656,38.0596 32.7148,38.032 32.5416,38.1708 L32.5416,38.1708 Z" id="Fill-3" fill="#247BA0"></path>
                </g>
            </g>
        </g>
    </g>
</svg>