<?xml version="1.0" encoding="UTF-8" standalone="no"?>
<svg width="60px" height="60px" viewBox="0 0 60 60" version="1.1" xmlns="http://www.w3.org/2000/svg" xmlns:xlink="http://www.w3.org/1999/xlink" xmlns:sketch="http://www.bohemiancoding.com/sketch/ns">
    <!-- Generator: Sketch 3.3.2 (12043) - http://www.bohemiancoding.com/sketch -->
    <title>Oval 5 Copy 5 + 23. Videos</title>
    <desc>Created with Sketch.</desc>
    <defs></defs>
    <g id="Page-1" stroke="none" stroke-width="1" fill="none" fill-rule="evenodd" sketch:type="MSPage">
        <g id="150611-MOOC" sketch:type="MSArtboardGroup" transform="translate(-313.000000, -1445.000000)">
            <g id="Group" sketch:type="MSLayerGroup" transform="translate(0.000000, 1165.000000)">
                <g id="Oval-5-Copy-5-+-23.-Videos" transform="translate(313.000000, 280.000000)" sketch:type="MSShapeGroup">
                    <path d="M30,60 C46.5685425,60 60,46.5685425 60,30 C60,13.4314575 46.5685425,0 30,0 C13.4314575,0 0,13.4314575 0,30 C0,46.5685425 13.4314575,60 30,60 Z" id="Oval-5-Copy-5" fill="#FFFFFF"></path>
                    <path d="M28.4347826,33.5217391 C28.56,33.5217391 28.6690435,33.4721739 28.7587826,33.3991304 L32.9196522,30.7998261 C33.0448696,30.7043478 33.1304348,30.5608696 33.1304348,30.3913043 C33.1304348,30.1648696 32.9848696,29.9770435 32.7829565,29.9045217 L28.7290435,27.3626087 C28.6434783,27.3031304 28.5464348,27.2603478 28.4347826,27.2603478 C28.1462609,27.2603478 27.9130435,27.494087 27.9130435,27.782087 L27.9130435,32.9994783 C27.9130435,33.288 28.1462609,33.5217391 28.4347826,33.5217391 L28.4347826,33.5217391 Z M39.9130435,21 L20.0869565,21 C18.9344348,21 18,21.9344348 18,23.0869565 L18,37.6956522 C18,38.8481739 18.9344348,39.7826087 20.0869565,39.7826087 L39.9130435,39.7826087 C41.0655652,39.7826087 42,38.8481739 42,37.6956522 L42,23.0869565 C42,21.9344348 41.0655652,21 39.9130435,21 L39.9130435,21 Z M30.5217391,22.0434783 L35.2173913,22.0434783 L35.2173913,24.1304348 L30.5217391,24.1304348 L30.5217391,22.0434783 L30.5217391,22.0434783 Z M24.7826087,22.0434783 L29.4782609,22.0434783 L29.4782609,24.1304348 L24.7826087,24.1304348 L24.7826087,22.0434783 L24.7826087,22.0434783 Z M19.0434783,23.0869565 C19.0434783,22.5109565 19.5109565,22.0434783 20.0869565,22.0434783 L23.7391304,22.0434783 L23.7391304,24.1304348 L19.0434783,24.1304348 L19.0434783,23.0869565 L19.0434783,23.0869565 Z M23.7391304,38.7391304 L20.0869565,38.7391304 C19.5109565,38.7391304 19.0434783,38.2721739 19.0434783,37.6956522 L19.0434783,36.6521739 L23.7391304,36.6521739 L23.7391304,38.7391304 L23.7391304,38.7391304 Z M29.4782609,38.7391304 L24.7826087,38.7391304 L24.7826087,36.6521739 L29.4782609,36.6521739 L29.4782609,38.7391304 L29.4782609,38.7391304 Z M35.2173913,38.7391304 L30.5217391,38.7391304 L30.5217391,36.6521739 L35.2173913,36.6521739 L35.2173913,38.7391304 L35.2173913,38.7391304 Z M40.9565217,37.6956522 C40.9565217,38.2721739 40.4895652,38.7391304 39.9130435,38.7391304 L36.2608696,38.7391304 L36.2608696,36.6521739 L40.9565217,36.6521739 L40.9565217,37.6956522 L40.9565217,37.6956522 Z M40.9565217,35.6086957 L19.0434783,35.6086957 L19.0434783,25.173913 L40.9565217,25.173913 L40.9565217,35.6086957 L40.9565217,35.6086957 Z M40.9565217,24.1304348 L36.2608696,24.1304348 L36.2608696,22.0434783 L39.9130435,22.0434783 C40.4895652,22.0434783 40.9565217,22.5109565 40.9565217,23.0869565 L40.9565217,24.1304348 L40.9565217,24.1304348 Z" id="23.-Videos" fill="#247BA0"></path>
                </g>
            </g>
        </g>
    </g>
</svg>