<?xml version="1.0" encoding="UTF-8" standalone="no"?>
<svg width="173px" height="173px" viewBox="0 0 173 173" version="1.1" xmlns="http://www.w3.org/2000/svg" xmlns:xlink="http://www.w3.org/1999/xlink" xmlns:sketch="http://www.bohemiancoding.com/sketch/ns">
    <!-- Generator: Sketch 3.3.2 (12043) - http://www.bohemiancoding.com/sketch -->
    <title>Oval 1 Copy 2 + Fill 11</title>
    <desc>Created with Sketch.</desc>
    <defs></defs>
    <g id="Page-1" stroke="none" stroke-width="1" fill="none" fill-rule="evenodd" sketch:type="MSPage">
        <g id="150611-MOOC" sketch:type="MSArtboardGroup" transform="translate(-794.000000, -865.000000)">
            <g id="Oval-1-Copy-2-+-Fill-11" sketch:type="MSLayerGroup" transform="translate(794.000000, 865.000000)">
                <circle id="Oval-1-Copy-2" fill="#FFFFFF" sketch:type="MSShapeGroup" cx="86.5" cy="86.5" r="86.5"></circle>
                <path d="M98.46835,63.9211 C97.7334833,63.53055 96.9706333,63.17285 96.1992667,62.8553 C95.5799833,62.5985833 94.8670167,62.8966667 94.6115167,63.5183833 C94.3572333,64.1401 94.6541,64.85185 95.2746,65.1061333 C95.97175,65.39205 96.6628167,65.7169 97.3271167,66.0697333 C97.5084,66.1670667 97.7042833,66.2120833 97.8965167,66.2120833 C98.3320833,66.2120833 98.7542667,65.9784833 98.97205,65.5660333 C99.2871667,64.9735167 99.0620833,64.2362167 98.46835,63.9211 L98.46835,63.9211 Z M86.5,79.2 C88.1376333,79.2 88.9333333,79.9957 88.9333333,81.6333333 C88.9333333,82.3049333 89.4784,82.85 90.15,82.85 C90.8216,82.85 91.3666667,82.3049333 91.3666667,81.6333333 C91.3666667,79.0637333 89.99305,77.3385 87.7166667,76.8919833 L87.7166667,74.3333333 C87.7166667,73.6617333 87.1716,73.1166667 86.5,73.1166667 C85.8284,73.1166667 85.2833333,73.6617333 85.2833333,74.3333333 L85.2833333,76.8919833 C83.00695,77.3385 81.6333333,79.0637333 81.6333333,81.6333333 C81.6333333,84.69325 83.11645,85.57655 85.9573667,86.9951833 C88.7106833,88.3712333 88.9333333,88.6072667 88.9333333,90.15 C88.9333333,91.7876333 88.1376333,92.5833333 86.5,92.5833333 C84.8623667,92.5833333 84.0666667,91.7876333 84.0666667,90.15 C84.0666667,89.4784 83.5216,88.9333333 82.85,88.9333333 C82.1784,88.9333333 81.6333333,89.4784 81.6333333,90.15 C81.6333333,92.7196 83.00695,94.4448333 85.2833333,94.89135 L85.2833333,97.45 C85.2833333,98.1216 85.8284,98.6666667 86.5,98.6666667 C87.1716,98.6666667 87.7166667,98.1216 87.7166667,97.45 L87.7166667,94.89135 C89.99305,94.4448333 91.3666667,92.7196 91.3666667,90.15 C91.3666667,87.1119833 89.96385,86.2761333 87.0450667,84.8185667 C84.2893167,83.4425167 84.0666667,83.20405 84.0666667,81.6333333 C84.0666667,79.9738 84.8404667,79.2 86.5,79.2 L86.5,79.2 Z M102.854433,102.838617 C102.323967,103.369083 101.758217,103.882517 101.174217,104.3631 C100.655917,104.79015 100.5817,105.55665 101.00875,106.076167 C101.24965,106.368167 101.597617,106.519033 101.948017,106.519033 C102.22055,106.519033 102.4943,106.427783 102.721817,106.241633 C103.365433,105.711167 103.989583,105.1442 104.576017,104.557767 C105.050517,104.08205 105.050517,103.3119 104.5748,102.8374 C104.1003,102.3629 103.33015,102.361683 102.854433,102.838617 L102.854433,102.838617 Z M110.833333,85.2322333 C110.161733,85.2322333 109.616667,85.8284 109.616667,86.5 C109.616667,87.2543333 109.580167,88.0159667 109.507167,88.7654333 C109.441467,89.4346 109.931783,90.02955 110.60095,90.0940333 C110.6411,90.0989 110.680033,90.1001167 110.718967,90.1001167 C111.33825,90.1001167 111.868717,89.6292667 111.928333,89.0014667 C112.00985,88.1729167 112.05,87.3322 112.05,86.5 L112.05,86.3990167 C112.05,85.7262 111.504933,85.2322333 110.833333,85.2322333 L110.833333,85.2322333 Z M86.5,120.566667 C67.7158833,120.566667 52.4333333,105.284117 52.4333333,86.5 C52.4333333,67.7158833 67.7158833,52.4333333 86.5,52.4333333 C105.284117,52.4333333 120.566667,67.7158833 120.566667,86.5 C120.566667,105.284117 105.284117,120.566667 86.5,120.566667 L86.5,120.566667 Z M86.5,50 C66.3739,50 50,66.3739 50,86.5 C50,106.6261 66.3739,123 86.5,123 C106.6261,123 123,106.6261 123,86.5 C123,66.3739 106.6261,50 86.5,50 L86.5,50 Z M109.456067,94.6845167 C108.833133,94.4253667 108.1226,94.7222333 107.865883,95.3427333 C107.577533,96.0386667 107.251467,96.7285167 106.8962,97.3916 C106.57865,97.9841167 106.802517,98.7214167 107.395033,99.0389667 C107.577533,99.1363 107.773417,99.1825333 107.968083,99.1825333 C108.401217,99.1825333 108.822183,98.9489333 109.041183,98.5401333 C109.434167,97.8064833 109.7943,97.04485 110.114283,96.2734833 C110.371,95.6529833 110.076567,94.9412333 109.456067,94.6845167 L109.456067,94.6845167 Z M104.500583,68.3680167 C104.02365,67.8935167 103.2535,67.8971667 102.780217,68.3741 C102.306933,68.8510333 102.309367,69.6211833 102.7863,70.0944667 C103.32285,70.62615 103.8375,71.1906833 104.316867,71.7686 C104.55655,72.0593833 104.904517,72.2090333 105.254917,72.2090333 C105.52745,72.2090333 105.802417,72.1177833 106.029933,71.9304167 C106.547017,71.50215 106.620017,70.7344333 106.19175,70.21735 C105.6625,69.5773833 105.0931,68.9556667 104.500583,68.3680167 L104.500583,68.3680167 Z M86.5,109.616667 C85.7505333,109.616667 84.9962,109.580167 84.2589,109.5096 C83.5775667,109.448767 82.996,109.935433 82.9303,110.603383 C82.8670333,111.27255 83.3561333,111.8675 84.0253,111.931983 C84.8404667,112.00985 85.6726667,112.05 86.5,112.05 L86.52555,112.05 C87.19715,112.05 87.73005,111.504933 87.73005,110.833333 C87.73005,110.161733 87.1716,109.616667 86.5,109.616667 L86.5,109.616667 Z M95.3634167,107.857367 C94.6699167,108.145717 93.9520833,108.402433 93.2318167,108.621433 C92.5882,108.817317 92.2256333,109.496217 92.4203,110.138617 C92.5796833,110.664217 93.0627,111.003667 93.5834333,111.003667 C93.7002333,111.003667 93.8194667,110.985417 93.9374833,110.950133 C94.7356167,110.708017 95.5301,110.423317 96.2978167,110.103333 C96.9183167,109.8454 97.21275,109.13365 96.9548167,108.51315 C96.6968833,107.89265 95.9875667,107.599433 95.3634167,107.857367 L95.3634167,107.857367 Z M64.3858667,93.2549333 C64.1899833,92.6113167 63.5074333,92.24875 62.8674667,92.44585 C62.2250667,92.6405167 61.8625,93.3206333 62.0583833,93.9630333 C62.2992833,94.7575167 62.5852,95.5507833 62.9064,96.3233667 C63.1010667,96.7905667 63.5536667,97.0716167 64.0306,97.0716167 C64.1863333,97.0716167 64.3445,97.0424167 64.4978,96.9779333 C65.1183,96.7187833 65.4115167,96.0070333 65.1523667,95.3865333 C64.8615833,94.6881667 64.60365,93.97155 64.3858667,93.2549333 L64.3858667,93.2549333 Z M63.3833333,86.5 C63.3833333,85.7614833 63.4186167,85.01445 63.4879667,84.2820167 C63.55245,83.61285 63.0609167,83.0191167 62.3929667,82.95585 C61.7213667,82.8950167 61.12885,83.3829 61.0655833,84.0520667 C60.9889333,84.86115 60.95,85.6848333 60.95,86.5 L60.95,86.5511 C60.95,87.2227 61.4950667,87.7422167 62.1666667,87.7422167 C62.8382667,87.7422167 63.3833333,87.1716 63.3833333,86.5 L63.3833333,86.5 Z M79.0114167,62.0656833 C78.2145,62.3090167 77.42245,62.59615 76.6523,62.91735 C76.0330167,63.1765 75.7398,63.8894667 75.99895,64.50875 C76.1948333,64.97595 76.6462167,65.257 77.1219333,65.257 C77.2788833,65.257 77.4382667,65.2265833 77.5915667,65.1621 C78.2862833,64.8725333 79.0029,64.6133833 79.7231667,64.3931667 C80.3655667,64.1960667 80.7269167,63.51595 80.5298167,62.87355 C80.3339333,62.23115 79.64895,61.8698 79.0114167,62.0656833 L79.0114167,62.0656833 Z M108.60075,79.6988333 C108.76135,80.222 109.241933,80.5590167 109.762667,80.5590167 C109.880683,80.5590167 110.001133,80.5419833 110.120367,80.5054833 C110.762767,80.3083833 111.124117,79.62705 110.927017,78.98465 C110.68125,78.18895 110.395333,77.3956833 110.072917,76.6279667 C109.81255,76.0074667 109.099583,75.7179 108.4803,75.9758333 C107.861017,76.2362 107.569017,76.9491667 107.828167,77.56845 C108.120167,78.26195 108.379317,78.9797833 108.60075,79.6988333 L108.60075,79.6988333 Z M86.5,63.3833333 C87.2348667,63.3833333 87.9721667,63.4174 88.6924333,63.4855333 C88.7313667,63.4891833 88.7703,63.4916167 88.8080167,63.4916167 C89.4285167,63.4916167 89.9589833,63.01955 90.0186,62.3893167 C90.0818667,61.72015 89.59155,61.1276333 88.9223833,61.06315 C88.1266833,60.9877167 87.3115167,60.95 86.5,60.95 L86.42335,60.95 C85.75175,60.95 85.2456167,61.4950667 85.2456167,62.1666667 C85.2456167,62.8382667 85.8284,63.3833333 86.5,63.3833333 L86.5,63.3833333 Z M77.6791667,107.8744 C76.9856667,107.588483 76.2958167,107.262417 75.6303,106.90715 C75.03535,106.590817 74.3004833,106.814683 73.98415,107.4072 C73.6678167,107.999717 73.8916833,108.737017 74.4842,109.054567 C75.2202833,109.446333 75.9831333,109.807683 76.7520667,110.124017 C76.9029333,110.187283 77.0611,110.216483 77.2156167,110.216483 C77.6937667,110.216483 78.1463667,109.933 78.3398167,109.463367 C78.5965333,108.842867 78.3008833,108.131117 77.6791667,107.8744 L77.6791667,107.8744 Z M70.2380333,66.7924333 C69.5980667,67.3204667 68.9751333,67.88865 68.3862667,68.47995 C67.9129833,68.9568833 67.9154167,69.7270333 68.3911333,70.2015333 C68.6283833,70.43635 68.9386333,70.5555833 69.2488833,70.5555833 C69.5615667,70.5555833 69.87425,70.4351333 70.1115,70.1966667 C70.6444,69.6613333 71.2089333,69.1466833 71.7880667,68.6685333 C72.30515,68.2402667 72.3793667,67.4737667 71.9511,66.9554667 C71.52405,66.4383833 70.75755,66.3641667 70.2380333,66.7924333 L70.2380333,66.7924333 Z M68.6527167,101.193683 C68.22445,100.675383 67.45795,100.601167 66.93965,101.029433 C66.42135,101.456483 66.34835,102.2242 66.7754,102.7425 C67.3070833,103.386117 67.87405,104.010267 68.4617,104.595483 C68.69895,104.831517 69.0104167,104.95075 69.3206667,104.95075 C69.6321333,104.95075 69.9448167,104.8303 70.1820667,104.59305 C70.6565667,104.116117 70.65535,103.345967 70.1796333,102.872683 C69.64795,102.342217 69.1345167,101.777683 68.6527167,101.193683 L68.6527167,101.193683 Z M65.5794167,74.00605 C64.9844667,73.6897167 64.2483833,73.9148 63.9332667,74.5085333 C63.5415,75.2458333 63.1813667,76.0086833 62.86625,76.7764 C62.61075,77.3981167 62.9064,78.10865 63.5281167,78.36415 C63.6802,78.4274167 63.83715,78.4566167 63.99045,78.4566167 C64.4698167,78.4566167 64.9224167,78.1719167 65.1158667,77.7022833 C65.4017833,77.0087833 65.7266333,76.3189333 66.0819,75.6509833 C66.3970167,75.0584667 66.1719333,74.3223833 65.5794167,74.00605 L65.5794167,74.00605 Z" id="Fill-11" fill="#70C1B3" sketch:type="MSShapeGroup"></path>
            </g>
        </g>
    </g>
</svg>