<?xml version="1.0" encoding="UTF-8" standalone="no"?>
<svg width="173px" height="173px" viewBox="0 0 173 173" version="1.1" xmlns="http://www.w3.org/2000/svg" xmlns:xlink="http://www.w3.org/1999/xlink" xmlns:sketch="http://www.bohemiancoding.com/sketch/ns">
    <!-- Generator: Sketch 3.3.2 (12043) - http://www.bohemiancoding.com/sketch -->
    <title>Oval 1 + Fill 23</title>
    <desc>Created with Sketch.</desc>
    <defs></defs>
    <g id="Page-1" stroke="none" stroke-width="1" fill="none" fill-rule="evenodd" sketch:type="MSPage">
        <g id="150611-MOOC" sketch:type="MSArtboardGroup" transform="translate(-154.000000, -865.000000)">
            <g id="Oval-1-+-Fill-23" sketch:type="MSLayerGroup" transform="translate(154.000000, 865.000000)">
                <circle id="Oval-1" fill="#FFFFFF" sketch:type="MSShapeGroup" cx="86.5" cy="86.5" r="86.5"></circle>
                <path d="M101.550807,78.1805263 L99.7552632,80.8315789 C99.3582456,81.4155789 99.5119298,82.2121754 100.098491,82.609193 C100.318772,82.7577544 100.567228,82.8294737 100.815684,82.8294737 C101.222947,82.8294737 101.62893,82.6322456 101.876105,82.2659649 L103.669088,79.6149123 C104.068667,79.0309123 103.912421,78.2343158 103.329702,77.8372982 C102.744421,77.4402807 101.949105,77.5939649 101.550807,78.1805263 L101.550807,78.1805263 Z M107.983772,91.3986491 C108.210456,91.8289649 108.65614,92.0787018 109.117193,92.0787018 C109.316982,92.0787018 109.523175,92.0274737 109.719123,91.9288596 L112.546912,90.4317193 C113.171895,90.1012982 113.410105,89.325193 113.079684,88.6989298 C112.746702,88.0752281 111.977,87.8344561 111.345614,88.1687193 L108.516544,89.6645789 C107.892842,89.9962807 107.654632,90.7736667 107.983772,91.3986491 L107.983772,91.3986491 Z M96.1052632,102.859649 C96.1052632,99.0175439 91.378193,95.1754386 87.1403509,95.1754386 C85.9339298,95.1754386 84.6903684,95.4623158 83.5249298,95.9605088 L74.5689825,84.4636491 C74.1309825,83.9078246 73.3267018,83.8079298 72.7708772,84.240807 C72.2150526,84.6762456 72.1151579,85.4805263 72.5480351,86.0389123 L81.2901053,97.2642632 C79.4625439,98.6666316 78.1754386,100.653 78.1754386,102.859649 L52.5793333,102.859649 C53.1197895,82.9729123 66.9539298,69.5614035 87.1403509,69.5614035 C107.326772,69.5614035 119.87893,82.9729123 120.418105,102.859649 L96.1052632,102.859649 L96.1052632,102.859649 Z M80.7368421,102.859649 C80.7368421,100.03186 84.3125614,97.7368421 87.1403509,97.7368421 C89.9655789,97.7368421 92.5436316,100.03186 93.5438596,102.859649 L80.7368421,102.859649 L80.7368421,102.859649 Z M87.1403509,67 C65.3095088,67 50,82.3095088 50,104.140351 C50,104.846018 50.5737544,105.421053 51.2807018,105.421053 L121.719298,105.421053 C122.423684,105.421053 123,104.846018 123,104.140351 C123,82.3095088 108.971193,67 87.1403509,67 L87.1403509,67 Z M89.6287544,72.8092632 C88.9154035,72.7324211 88.2955439,73.2421404 88.2187018,73.9439649 L87.8703509,77.1201053 C87.7935088,77.8219298 88.3057895,78.4545965 89.0050526,78.5314386 C89.0562807,78.5365614 89.0998246,78.5391228 89.1459298,78.5391228 C89.7914035,78.5391228 90.3497895,78.0524561 90.4176667,77.3967368 L90.7647368,74.2205965 C90.8454211,73.5187719 90.3318596,72.8861053 89.6287544,72.8092632 L89.6287544,72.8092632 Z M76.838386,75.4961754 C76.5771228,74.8378947 75.8343158,74.5177193 75.1760351,74.7789825 C74.5203158,75.0402456 74.1975789,75.785614 74.4614035,76.4413333 L75.6422105,79.41 C75.8394386,79.9094737 76.3209825,80.2168421 76.8307018,80.2168421 C76.9895088,80.2168421 77.1508772,80.1886667 77.3045614,80.1246316 C77.9602807,79.8633684 78.2855789,79.118 78.019193,78.4622807 L76.838386,75.4961754 L76.838386,75.4961754 Z M61.4930175,96.0706491 L58.3706667,95.3829123 C57.6739649,95.2292281 56.995193,95.6659474 56.8440702,96.358807 C56.6929474,97.0516667 57.128386,97.7291579 57.8199649,97.8841228 L60.9423158,98.5718596 C61.0345263,98.5974737 61.1267368,98.6051579 61.2189474,98.6051579 C61.8055088,98.6051579 62.3357193,98.196614 62.4689123,97.6023684 C62.6200351,96.9069474 62.1845965,96.225614 61.4930175,96.0706491 L61.4930175,96.0706491 Z M65.1327719,83.1419649 C64.5948772,82.6809123 63.7803509,82.7500702 63.3269825,83.2879649 C62.8684912,83.8258596 62.9350877,84.6352632 63.4729825,85.0937544 L65.9088772,87.1633684 C66.1496491,87.3682807 66.4442105,87.4681754 66.7387719,87.4681754 C67.1024912,87.4681754 67.4610877,87.3157719 67.7146667,87.0173684 C68.1731579,86.4769123 68.1065614,85.6700702 67.5686667,85.2115789 L65.1327719,83.1419649 L65.1327719,83.1419649 Z" id="Fill-23" fill="#70C1B3" sketch:type="MSShapeGroup" transform="translate(86.500000, 86.210526) scale(-1, 1) translate(-86.500000, -86.210526) "></path>
            </g>
        </g>
    </g>
</svg>