<?xml version="1.0" encoding="UTF-8" standalone="no"?>
<svg width="173px" height="173px" viewBox="0 0 173 173" version="1.1" xmlns="http://www.w3.org/2000/svg" xmlns:xlink="http://www.w3.org/1999/xlink" xmlns:sketch="http://www.bohemiancoding.com/sketch/ns">
    <!-- Generator: Sketch 3.3.2 (12043) - http://www.bohemiancoding.com/sketch -->
    <title>Oval 1 Copy + Fill 51</title>
    <desc>Created with Sketch.</desc>
    <defs></defs>
    <g id="Page-1" stroke="none" stroke-width="1" fill="none" fill-rule="evenodd" sketch:type="MSPage">
        <g id="150611-MOOC" sketch:type="MSArtboardGroup" transform="translate(-474.000000, -865.000000)">
            <g id="Oval-1-Copy-+-Fill-51" sketch:type="MSLayerGroup" transform="translate(474.000000, 865.000000)">
                <circle id="Oval-1-Copy" fill="#FFFFFF" sketch:type="MSShapeGroup" cx="86.5" cy="86.5" r="86.5"></circle>
                <path d="M111.851938,90.9841324 C111.851938,90.7973019 111.82348,90.6092341 111.734396,90.4310646 C111.621803,90.2058782 111.439922,90.0512172 111.238244,89.9336748 C109.789383,85.2802341 106.853304,76.9904036 104.902105,73.1003697 C106.707305,72.3134545 110.400602,70.9351155 114.112458,70.9351155 C114.79544,70.9351155 115.453676,70.9833697 116.074793,71.0761663 C118.468941,75.0218782 119.910378,85.7021494 120.412716,90.9841324 L111.851938,90.9841324 L111.851938,90.9841324 Z M105.590036,92.1187257 C102.094704,86.8936579 93.8915013,78.3390477 89.0425793,75.1072511 C88.715936,74.8882511 88.3051572,74.8387596 87.9364461,74.973624 C85.2911297,75.9275731 85.2045197,75.9498443 83.281778,76.1428613 C82.9155415,76.1799799 82.583949,76.377946 82.3785596,76.6847935 L81.9492215,77.3405562 C80.2380556,79.9759799 78.7434147,81.925946 76.3703011,81.1489291 C75.8741496,80.9843697 75.6106078,80.6911324 75.4893539,80.1677596 C75.0315582,78.2054206 76.8936729,74.3104375 78.7397029,72.500285 C81.5928833,69.7015392 86.7857706,67.2677935 92.0318611,69.6136918 C97.157935,71.9063867 101.035588,73.1733697 102.353297,73.5816748 C104.134988,76.7491324 107.295015,85.6242002 108.823063,90.5028274 L105.590036,92.1187257 L105.590036,92.1187257 Z M104.115191,98.4486918 C103.890005,98.6417087 103.302295,99.0388782 102.692313,98.6404714 C101.365943,97.565268 95.233956,91.2550985 92.9598253,88.8894036 C92.4859449,88.3957257 91.7039805,88.3821155 91.2103036,88.8547596 C90.7178639,89.3286409 90.7017792,90.1118443 91.1756596,90.604285 C91.966285,91.4258443 98.4607967,98.1703019 100.72008,100.201929 C100.643368,100.699319 100.326623,101.097726 99.75376,101.384777 C98.7132029,101.904438 97.2804263,101.827726 96.6234277,101.215268 C96.6085802,101.201658 96.590021,101.192997 96.5751735,101.180624 C96.5652753,101.171963 96.5615634,101.160827 96.5516651,101.153404 C94.6994487,99.673607 89.0438166,93.7234884 88.0292425,92.6210646 C87.567735,92.1174884 86.783296,92.0853189 86.2809581,92.5480646 C85.7786202,93.0108104 85.7452135,93.7940138 86.2079582,94.2963528 C86.8736178,95.0201663 91.9341156,100.38381 94.4049747,102.571336 C94.2589751,102.920251 94.0127552,103.173895 93.6428069,103.316183 C92.707419,103.676234 91.3859981,103.318658 90.4271018,102.443895 C90.4196781,102.436471 90.4110171,102.43276 90.4023561,102.425336 C90.397407,102.421624 90.3949324,102.4142 90.3912205,102.410488 C89.690917,101.821539 88.8099697,101.128658 87.8820055,100.399895 C86.1213483,99.0190816 84.1256067,97.4539121 83.073914,96.3255053 C82.6074574,95.8268782 81.8242557,95.8021324 81.3256296,96.2661155 C80.8257663,96.7325731 80.798546,97.5145392 81.2650026,98.0156409 C82.4478476,99.2813867 84.4336908,100.84037 86.3539579,102.347387 C86.90455,102.7792 87.420498,103.187505 87.9079885,103.579726 C87.3054305,104.105573 86.3663308,104.594302 85.8813149,104.594302 C85.0053167,104.594302 83.7878278,104.178573 82.8487281,103.559929 C81.7883744,102.864573 74.5651016,96.9305392 68.1967931,91.5978274 C67.3913202,90.9210307 66.7306097,90.1328782 66.0909331,89.3682341 C65.5267309,88.6951494 64.9946981,88.0591833 64.4082248,87.564268 C64.3673944,87.529624 64.3166657,87.5184884 64.2733607,87.4900307 C65.8162557,82.2612511 67.7996244,74.9451663 68.4281654,69.9725053 C70.4201951,70.0677765 73.6371374,70.464946 76.3344199,70.7965392 C76.52125,70.8188104 76.6994191,70.8410816 76.8813001,70.8633528 C74.8236942,72.9679799 72.3441741,77.5731663 73.0778844,80.7294884 C73.3946295,82.0843189 74.2879496,83.067963 75.5957604,83.4985392 C79.9658528,84.9350307 82.506,81.0252002 84.0253866,78.687963 L84.1194203,78.5432002 C85.6672645,78.3724545 86.2153819,78.2190307 88.1777168,77.5150138 C93.820976,81.5102172 102.718296,91.3949121 104.563089,95.2317426 C105.229986,96.6212172 104.819207,97.848607 104.115191,98.4486918 L104.115191,98.4486918 Z M60.2336235,92.2214206 L52.4956399,92.2214206 C52.7059785,83.1050816 54.2463989,71.3545562 54.7660588,67.6154714 C57.2072231,67.9285053 62.7985164,68.7030477 65.9832893,69.5926579 C65.1184267,76.5536409 61.2939772,88.8832172 60.2336235,92.2214206 L60.2336235,92.2214206 Z M117.819366,69.2288952 C117.636248,68.9740138 117.362807,68.7970816 117.054723,68.7376918 C116.131708,68.5533358 115.14188,68.4605392 114.112458,68.4605392 C109.21652,68.4605392 104.530919,70.5132002 103.074634,71.2135053 C101.806417,70.8188104 97.9844417,69.5642002 93.0427234,67.3531663 C88.0341917,65.1149121 83.1196936,66.4165392 79.5847689,68.6919121 C78.7434147,68.5991155 77.7313152,68.4753867 76.6350802,68.3405223 C73.2572908,67.9247935 69.4551124,67.4620477 67.516286,67.4768952 C63.4802607,66.140624 54.2525853,65.0555223 53.8541794,65.0097426 C53.1947062,64.925607 52.5859618,65.3957765 52.4882162,66.0577257 C52.4647078,66.2173358 50.1027297,82.2538274 50.000035,93.4475731 C49.9975605,93.7779291 50.1262382,94.0959121 50.3588478,94.3297596 C50.5914575,94.5648443 50.9069653,94.6959969 51.2373206,94.6959969 L61.1356046,94.6959969 C61.6713493,94.6959969 62.1452296,94.3520307 62.3122632,93.8435053 C62.3753647,93.6492511 62.8356349,92.236268 63.481498,90.1254545 C63.7116331,90.3815731 63.9491919,90.6649121 64.1941744,90.9581494 C64.8697323,91.763624 65.6343748,92.6767426 66.6068812,93.4933528 C71.8603955,97.8931494 80.1588694,104.755149 81.487714,105.627438 C82.5455931,106.324031 84.2542844,107.068878 85.8813149,107.068878 C87.0728208,107.068878 88.8037832,106.232471 89.8901199,105.097878 C91.3711507,105.955319 93.1132487,106.173082 94.5373643,105.623726 C95.4034642,105.288421 96.0777848,104.698234 96.5046483,103.927404 C97.8532895,104.372827 99.4951673,104.280031 100.861131,103.597048 C101.916535,103.069963 102.653957,102.253353 102.99916,101.282082 C103.935785,101.331573 104.905817,101.0272 105.723663,100.330607 C107.126744,99.1304375 107.996556,96.7981494 106.833508,94.2641833 L109.59018,92.8858443 C109.812891,93.2335223 110.19645,93.4587087 110.627025,93.4587087 L121.762595,93.4587087 C122.107797,93.4587087 122.436915,93.3151833 122.670762,93.0615392 C122.904609,92.8091324 123.023389,92.4688782 122.996168,92.1249121 C122.94049,91.4060477 121.575765,74.4638613 117.819366,69.2288952 L117.819366,69.2288952 Z" id="Fill-51" fill="#70C1B3" sketch:type="MSShapeGroup"></path>
            </g>
        </g>
    </g>
</svg>