<?xml version="1.0" encoding="UTF-8" standalone="no"?>
<svg width="173px" height="173px" viewBox="0 0 173 173" version="1.1" xmlns="http://www.w3.org/2000/svg" xmlns:xlink="http://www.w3.org/1999/xlink" xmlns:sketch="http://www.bohemiancoding.com/sketch/ns">
    <!-- Generator: Sketch 3.3.2 (12043) - http://www.bohemiancoding.com/sketch -->
    <title>Oval 1 Copy 3 + Fill 96</title>
    <desc>Created with Sketch.</desc>
    <defs></defs>
    <g id="Page-1" stroke="none" stroke-width="1" fill="none" fill-rule="evenodd" sketch:type="MSPage">
        <g id="150611-MOOC" sketch:type="MSArtboardGroup" transform="translate(-1114.000000, -865.000000)">
            <g id="Oval-1-Copy-3-+-Fill-96" sketch:type="MSLayerGroup" transform="translate(1114.000000, 865.000000)">
                <circle id="Oval-1-Copy-3" fill="#FFFFFF" sketch:type="MSShapeGroup" cx="86.5" cy="86.5" r="86.5"></circle>
                <path d="M121.520533,120.566667 L52.4333333,120.566667 L52.4333333,51.5208333 C52.4333333,50.6813333 52.0573833,50 51.2166667,50 C50.37595,50 50,50.6813333 50,51.5208333 L50,121.479167 C50,122.318667 50.7214833,123 51.5622,123 L121.520533,123 C122.360033,123 123,122.622833 123,121.783333 C123,120.943833 122.360033,120.566667 121.520533,120.566667 L121.520533,120.566667 Z M68.25,96.2333333 C70.9339667,96.2333333 73.1166667,98.4111667 73.1166667,101.1 C73.1166667,103.788833 70.9339667,105.966667 68.25,105.966667 C65.5660333,105.966667 63.3833333,103.788833 63.3833333,101.1 C63.3833333,98.4111667 65.5660333,96.2333333 68.25,96.2333333 L68.25,96.2333333 Z M98.6666667,87.7166667 C101.350633,87.7166667 103.533333,89.8945 103.533333,92.5833333 C103.533333,95.2721667 101.350633,97.45 98.6666667,97.45 C96.7698833,97.45 95.1419833,96.355 94.3377667,94.7611667 C94.3353333,94.749 94.3389833,94.749 94.33655,94.7368333 C94.2964,94.5786667 94.2246167,94.4326667 94.13215,94.311 C93.9265333,93.7756667 93.8,93.1916667 93.8,92.5833333 C93.8,89.8945 95.9827,87.7166667 98.6666667,87.7166667 L98.6666667,87.7166667 Z M110.833333,58.5166667 C110.833333,55.8278333 113.016033,53.65 115.7,53.65 C118.383967,53.65 120.566667,55.8278333 120.566667,58.5166667 C120.566667,61.2055 118.383967,63.3833333 115.7,63.3833333 C113.016033,63.3833333 110.833333,61.2055 110.833333,58.5166667 L110.833333,58.5166667 Z M57.8718333,116.734167 C58.0725833,116.855833 58.2952333,116.916667 58.51545,116.916667 C58.9218167,116.916667 59.3172333,116.709833 59.5484,116.344833 L64.99785,107.621333 C65.9784833,108.120167 67.0807833,108.4 68.25,108.4 C72.27595,108.4 75.55,105.127167 75.55,101.1 C75.55,101.014833 75.5402667,100.9175 75.5366167,100.832333 L92.4957333,96.4645 C93.7878333,98.5206667 96.0678667,99.8833333 98.6666667,99.8833333 C102.692617,99.8833333 105.966667,96.6105 105.966667,92.5833333 C105.966667,90.5758333 105.152717,88.763 103.838717,87.4368333 L115.22915,65.7923333 C115.384883,65.8045 115.540617,65.8166667 115.7,65.8166667 C119.72595,65.8166667 123,62.5438333 123,58.5166667 C123,54.4895 119.72595,51.2166667 115.7,51.2166667 C111.67405,51.2166667 108.4,54.4895 108.4,58.5166667 C108.4,61.5096667 110.207967,64.0768333 112.7873,65.2083333 L101.836083,86.0133333 C100.876133,85.551 99.80425,85.2833333 98.6666667,85.2833333 C94.6407167,85.2833333 91.3666667,88.5561667 91.3666667,92.5833333 C91.3666667,93.143 91.4348,93.6783333 91.5516,94.1893333 L75.04265,98.4476667 C73.9780667,95.7345 71.3379,93.8 68.25,93.8 C64.22405,93.8 60.95,97.0728333 60.95,101.1 C60.95,103.083167 61.7432667,104.871667 63.02685,106.185667 L57.4849333,115.055167 C57.12845,115.627 57.3012167,116.381333 57.8718333,116.734167 L57.8718333,116.734167 Z" id="Fill-96" fill="#70C1B3" sketch:type="MSShapeGroup"></path>
            </g>
        </g>
    </g>
</svg>